<svg width="120" height="120" viewBox="0 0 120 120" fill="none" xmlns="http://www.w3.org/2000/svg">
<path d="M112.602 56.814L95.616 32.145C95.3355 31.7433 94.9627 31.4149 94.5289 31.1873C94.095 30.9597 93.6129 30.8395 93.123 30.837H78.06V26.991C78.06 26.1977 77.7449 25.437 77.184 24.876C76.623 24.3151 75.8623 24 75.069 24H11.985C11.1933 24 10.4341 24.3145 9.87429 24.8743C9.31449 25.4341 9 26.1933 9 26.985V82.674C9 83.721 9.849 84.57 10.896 84.576H19.845V84.399C19.845 80.9133 21.2297 77.5703 23.6945 75.1055C26.1593 72.6407 29.5023 71.256 32.988 71.256C36.4737 71.256 39.8167 72.6407 42.2815 75.1055C44.7463 77.5703 46.131 80.9133 46.131 84.399V84.585V84.576H67.326V84.399C67.326 80.9133 68.7107 77.5703 71.1755 75.1055C73.6403 72.6407 76.9833 71.256 80.469 71.256C83.9547 71.256 87.2977 72.6407 89.7625 75.1055C92.2273 77.5703 93.612 80.9133 93.612 84.399V84.585V84.576H111.561C112.064 84.5744 112.547 84.3733 112.902 84.0168C113.257 83.6603 113.457 83.1774 113.457 82.674V59.394C113.425 58.463 113.127 57.5606 112.599 56.793L112.611 56.811L112.602 56.814ZM54.75 49.899H46.656V57.99H39.312V49.908H31.218V42.558H39.312V34.437H46.656V42.528H54.75V49.899ZM108.459 57.669C108.402 57.7747 108.318 57.8629 108.215 57.9242C108.112 57.9855 107.994 58.0176 107.874 58.017H78.066V34.434H91.419C91.8682 34.4361 92.3104 34.5452 92.709 34.7523C93.1076 34.9594 93.4511 35.2586 93.711 35.625L93.717 35.634L108.435 56.994C108.501 57.0888 108.538 57.2003 108.543 57.3156C108.548 57.4308 108.52 57.5451 108.462 57.645L108.465 57.642L108.459 57.669Z" fill="url(#paint0_linear_462_10779)"/>
<path d="M32.9581 73.2304C30.707 73.2304 28.5034 73.898 26.6316 75.1486C24.7599 76.3993 23.301 78.1769 22.4395 80.2567C21.5781 82.3365 21.3527 84.6251 21.7918 86.833C22.231 89.0408 23.315 91.0689 24.9068 92.6607C26.4986 94.2525 28.5267 95.3366 30.7346 95.7757C32.9425 96.2149 35.231 95.9895 37.3108 95.128C39.3906 94.2666 41.1682 92.8077 42.4189 90.9359C43.6696 89.0642 44.3371 86.8636 44.3371 84.6124V84.6034C44.3347 81.5868 43.1349 78.6945 41.0013 76.562C38.8677 74.4295 35.9747 73.2312 32.9581 73.2304ZM32.9581 88.4794C32.1921 88.4794 31.4433 88.2523 30.8064 87.8267C30.1695 87.4011 29.6731 86.7963 29.3799 86.0886C29.0868 85.3809 29.0101 84.6021 29.1595 83.8508C29.309 83.0996 29.6779 82.4095 30.2195 81.8678C30.7611 81.3262 31.4513 80.9573 32.2025 80.8078C32.9538 80.6584 33.7326 80.7351 34.4403 81.0282C35.148 81.3214 35.7528 81.8178 36.1784 82.4547C36.604 83.0916 36.8311 83.8404 36.8311 84.6064V84.6094C36.8311 85.6358 36.4234 86.6202 35.6976 87.3459C34.9719 88.0717 33.9845 88.4794 32.9581 88.4794ZM80.4451 73.2304H80.4421C78.191 73.2304 75.9904 73.898 74.1186 75.1486C72.2469 76.3993 70.788 78.1769 69.9265 80.2567C69.0651 82.3365 68.8396 84.6251 69.2788 86.833C69.718 89.0408 70.802 91.0689 72.3938 92.6607C73.9856 94.2525 76.0137 95.3366 78.2216 95.7757C80.4295 96.2149 82.718 95.9895 84.7978 95.128C86.8776 94.2666 88.6552 92.8077 89.9059 90.9359C91.1566 89.0642 91.8241 86.8636 91.8241 84.6124V84.6034C91.8217 81.5868 90.6219 78.6945 88.4883 76.562C86.3547 74.4295 83.4617 73.2312 80.4451 73.2304ZM80.4451 88.4794C79.6791 88.4794 78.9303 88.2523 78.2934 87.8267C77.6565 87.4011 77.1601 86.7963 76.8669 86.0886C76.5738 85.3809 76.4971 84.6021 76.6465 83.8508C76.796 83.0996 77.1648 82.4095 77.7065 81.8678C78.2481 81.3262 78.9383 80.9573 79.6895 80.8078C80.4408 80.6584 81.2196 80.7351 81.9273 81.0282C82.635 81.3214 83.2398 81.8178 83.6654 82.4547C84.091 83.0916 84.3181 83.8404 84.3181 84.6064V84.6094C84.3181 85.6358 83.9104 86.6202 83.1846 87.3459C82.4589 88.0717 81.4715 88.4794 80.4451 88.4794ZM89.4181 29.7784V27.6424C89.4631 27.1255 89.3056 26.6113 88.9787 26.2083C88.6519 25.8053 88.1812 25.545 87.6661 25.4824H84.2971C83.7765 25.5377 83.2989 25.7969 82.9688 26.2034C82.6388 26.6098 82.4832 27.1305 82.5361 27.6514V27.6424V29.7784H89.4181Z" fill="url(#paint1_linear_462_10779)"/>
<defs>
<linearGradient id="paint0_linear_462_10779" x1="116.372" y1="84.585" x2="17.5668" y2="12.2916" gradientUnits="userSpaceOnUse">
<stop stop-color="#0BBE95"/>
<stop offset="1" stop-color="#EE1433"/>
</linearGradient>
<linearGradient id="paint1_linear_462_10779" x1="93.7846" y1="95.9944" x2="7.23266" y2="59.4002" gradientUnits="userSpaceOnUse">
<stop stop-color="#0BBE95"/>
<stop offset="1" stop-color="#EE1433"/>
</linearGradient>
</defs>
</svg>
