<svg width="80" height="94" viewBox="0 0 80 94" fill="none" xmlns="http://www.w3.org/2000/svg">
<path d="M39.9972 29.5625C49.2066 29.5625 56.6657 23.0598 56.6657 15.0312C56.6657 7.00273 49.2066 0.5 39.9972 0.5C30.7878 0.5 23.3286 7.00273 23.3286 15.0312C23.3286 23.0598 30.7878 29.5625 39.9972 29.5625ZM28.8709 74.7547L34.2048 68.9422L21.3909 59.6422L11.8273 70.0684C9.45204 72.6477 9.38953 76.3168 11.6606 78.9688L21.6618 90.5938C23.3078 92.501 25.8081 93.5 28.3292 93.5C30.0585 93.5 31.8296 93.0277 33.3298 92.0469C37.0177 89.6492 37.7469 85.09 34.9966 81.875L28.8709 74.7547ZM58.6035 59.6422L45.7895 68.9422L51.1234 74.7547L44.9977 81.875C42.2474 85.09 42.9767 89.6492 46.6646 92.0469C48.1648 93.0277 49.915 93.5 51.6652 93.5C54.2071 93.5 56.7074 92.501 58.3326 90.5938L68.3337 78.9688C70.6048 76.3168 70.5423 72.6477 68.167 70.0684L58.6035 59.6422ZM78.4807 26.8379C75.8346 23.5502 70.6465 22.7691 66.8752 25.0578L58.4159 30.2346C47.4355 36.9553 32.538 36.9553 21.5784 30.2346L13.1191 25.076C9.34786 22.7691 4.15977 23.5684 1.51364 26.8379C-1.1325 30.1256 -0.215725 34.6484 3.5347 36.9553L11.994 42.132C15.5361 44.2936 19.3698 45.9283 23.3286 47.1998V52.8125H56.6657V47.218C60.6245 45.9465 64.4583 44.3117 68.0004 42.1502L76.4596 36.9734C80.2309 34.6484 81.1268 30.1256 78.4807 26.8379Z" fill="url(#paint0_linear_462_10745)"/>
<defs>
<linearGradient id="paint0_linear_462_10745" x1="82.2326" y1="93.5" x2="-20.2876" y2="56.0749" gradientUnits="userSpaceOnUse">
<stop stop-color="#0BBE95"/>
<stop offset="1" stop-color="#EE1433"/>
</linearGradient>
</defs>
</svg>
