<svg width="120" height="120" viewBox="0 0 120 120" fill="none" xmlns="http://www.w3.org/2000/svg">
<path d="M16.7606 18.7453C16.7215 18.6748 16.6968 18.5972 16.6879 18.5171C16.679 18.437 16.686 18.3558 16.7086 18.2784C16.7312 18.201 16.7689 18.1289 16.8195 18.0661C16.8702 18.0034 16.9327 17.9513 17.0036 17.9128L21.4586 15.4858C21.5292 15.4469 21.6068 15.4224 21.687 15.4137C21.7671 15.405 21.8482 15.4123 21.9255 15.4352C22.0028 15.4581 22.0748 15.4961 22.1373 15.547C22.1998 15.5979 22.2516 15.6608 22.2896 15.7318L24.0761 18.9913C30.8306 16.9663 38.3141 19.8463 41.8286 26.2828L33.1961 30.9958C33.8818 32.2532 34.0398 33.7314 33.6356 35.1053C33.2314 36.4792 32.2979 37.6362 31.0406 38.3218C29.7833 39.0075 28.3051 39.1656 26.9312 38.7614C25.5573 38.3571 24.4003 37.4237 23.7146 36.1663L15.0791 40.8733C11.5616 34.4398 13.1771 26.5888 18.5441 22.0063L16.7606 18.7453ZM77.5811 77.4583H106.635V107.491H77.5811V77.4583ZM74.2511 92.4688H50.7866C48.8201 92.4685 46.9342 91.6875 45.5431 90.2976C44.1521 88.9076 43.3696 87.0223 43.3676 85.0558C43.3688 83.0893 44.1511 81.2037 45.5423 79.8138C46.9336 78.4239 48.82 77.6436 50.7866 77.6443H74.2511V92.4688ZM23.6606 98.4824C23.6606 96.8249 25.0031 95.4793 26.6621 95.4793H74.2496V107.488H23.6606V98.4808V98.4824ZM41.7056 83.5198C41.7032 85.8949 40.7578 88.1717 39.0771 89.8499C37.3964 91.528 35.1181 92.47 32.7431 92.4688C31.5669 92.4698 30.4021 92.2391 29.315 91.7899C28.228 91.3408 27.2401 90.6818 26.4077 89.8509C25.5753 89.0199 24.9148 88.0331 24.4637 86.9468C24.0127 85.8605 23.7801 84.696 23.7791 83.5198C23.7791 78.5803 27.7916 74.5753 32.7431 74.5753C37.6916 74.5753 41.7056 78.5803 41.7056 83.5198ZM90.6956 58.4593L85.6541 44.1058C84.6761 41.3998 82.7981 39.2878 77.4971 39.2878H54.2231C48.9236 39.2878 47.0426 41.3998 46.0691 44.1058L41.0291 58.4593C40.6526 59.3863 40.4576 61.4698 42.5081 62.8648L54.3596 70.6738C55.1907 71.2218 56.2051 71.4179 57.1805 71.2191C58.1559 71.0203 59.0127 70.4428 59.5631 69.6133C59.8345 69.2016 60.0222 68.7404 60.1154 68.2561C60.2085 67.7718 60.2054 67.2739 60.106 66.7908C60.0067 66.3077 59.8132 65.8489 59.5365 65.4407C59.2599 65.0324 58.9055 64.6826 58.4936 64.4113L49.0871 58.2118L51.7346 50.9083H55.3991L53.2526 56.8333L60.3941 61.5403C61.1846 62.058 61.8644 62.7276 62.3941 63.5101C62.9238 64.2926 63.2928 65.1726 63.4796 66.0988C63.6736 67.0247 63.6817 67.9799 63.5035 68.909C63.3253 69.838 62.9644 70.7224 62.4416 71.5108C62.0225 72.1359 61.5083 72.6916 60.9176 73.1578H70.8056C70.2159 72.69 69.7014 72.1346 69.2801 71.5108C68.7576 70.7223 68.3965 69.838 68.2179 68.909C68.0392 67.9801 68.0464 67.025 68.2391 66.0988C68.4271 65.1728 68.7968 64.2932 69.3266 63.5108C69.8565 62.7284 70.536 62.0587 71.3261 61.5403L78.4721 56.8333L76.3166 50.9083H79.9841L82.6376 58.2118L73.2266 64.4113C71.4971 65.5513 71.0141 67.8868 72.1586 69.6133C73.3031 71.3398 75.6341 71.8168 77.3636 70.6738L89.2136 62.8648C91.2656 61.4683 91.0706 59.3863 90.6956 58.4593ZM68.1761 25.2403C67.8929 25.855 67.4394 26.3757 66.8695 26.7407C66.2995 27.1057 65.6369 27.2997 64.9601 27.2998C64.2823 27.3001 63.6185 27.1063 63.0473 26.7413C62.4761 26.3764 62.0213 25.8555 61.7366 25.2403H55.2446C55.1396 25.8103 55.0781 26.3938 55.0781 26.9953C55.0801 29.6236 56.1259 32.1436 57.9855 34.0009C59.8451 35.8583 62.3663 36.901 64.9946 36.8998C66.2962 36.9008 67.5852 36.6454 68.7881 36.1482C69.991 35.6509 71.0841 34.9216 72.0051 34.0019C72.9261 33.0822 73.6569 31.99 74.1558 30.7878C74.6546 29.5856 74.9118 28.2969 74.9126 26.9953C74.9126 26.3923 74.8481 25.8103 74.7476 25.2403H68.1761ZM61.5176 22.9018C61.7112 22.1355 62.1549 21.4556 62.7784 20.9698C63.4019 20.4841 64.1697 20.2201 64.9601 20.2198C66.6191 20.2198 68.0186 21.3658 68.3966 22.9018H74.0216C73.2342 21.1685 71.9643 19.6985 70.3639 18.6676C68.7634 17.6366 66.8999 17.0882 64.9961 17.0878C63.0924 17.0885 61.2291 17.6371 59.6287 18.668C58.0282 19.699 56.7583 21.1687 55.9706 22.9018H61.5176Z" fill="url(#paint0_linear_462_10761)"/>
<defs>
<linearGradient id="paint0_linear_462_10761" x1="109.242" y1="107.491" x2="-5.21655" y2="58.2107" gradientUnits="userSpaceOnUse">
<stop stop-color="#0BBE95"/>
<stop offset="1" stop-color="#EE1433"/>
</linearGradient>
</defs>
</svg>
